<svg width="350" height="332" viewBox="0 0 350 332" fill="none" xmlns="http://www.w3.org/2000/svg">
<g opacity="0.3">
<path d="M297.555 284.041C290.796 291.155 284.404 295.736 279.361 299.358C219.996 341.95 149.752 329.532 134.825 326.502C112.784 322.027 70.1687 313.374 39.3557 277.139C-7.24848 222.332 0.00790644 135.977 36.1596 78.9681C42.7767 68.5393 77.7092 10.6658 148.71 1.38523C191.68 -4.22572 241.765 7.09091 278.035 37.4896C354.162 101.282 348.74 230.157 297.555 284.041Z" fill="url(#paint0_linear)"/>
</g>
<path d="M41.6789 140.93L55.0912 141.347C58.3599 146.683 62.5098 151.571 67.4566 155.742C65.9891 168.507 64.9837 169.301 66.2699 169.968L80.649 177.381C81.0706 177.594 81.5749 177.53 81.9104 177.214L91.5005 168.15C97.768 169.759 104.137 170.308 110.375 169.871L118.514 180.559C118.803 180.94 119.289 181.088 119.74 180.959L135.009 176.259C135.46 176.119 135.755 175.716 135.759 175.253L135.924 162.009C141.26 158.883 146.124 154.874 150.247 150.065L163.536 152.088C164.005 152.163 164.453 151.928 164.666 151.518L171.885 137.455C172.098 137.045 172.022 136.54 171.694 136.203L162.339 126.541C163.845 120.372 164.267 114.088 163.707 107.911C173.956 100.043 175.2 100.231 174.744 98.8739C169.518 84.0595 170.12 82.9698 168.652 82.9174L155.239 82.5001C151.971 77.1641 147.821 72.2765 142.874 68.1058C144.34 55.352 145.347 54.5459 144.061 53.8792C129.657 46.7615 129.452 45.6632 128.42 46.6335L118.83 55.6973C112.563 54.0883 106.194 53.5398 99.956 53.9765C91.8905 43.8171 91.9694 42.4576 90.6026 42.8889C75.5761 47.8121 74.5975 47.1594 74.5717 48.5946L74.4062 61.8381C69.0703 64.9643 64.2064 68.9736 60.083 73.7819C47.358 72.1158 46.3317 71.0433 45.665 72.3295C38.7678 86.372 37.6204 86.596 38.6369 87.6439L47.9916 97.306C46.4858 103.475 46.0633 109.759 46.6239 115.937C36.4116 123.784 35.1309 123.616 35.5868 124.973C40.8011 139.787 40.2102 140.878 41.6789 140.93Z" fill="url(#paint1_linear)"/>
<path d="M173.112 124.548L184.614 122.962C188.174 127.041 192.422 130.609 197.245 133.451C197.842 144.552 197.099 145.375 198.293 145.758L211.631 149.999C212.022 150.121 212.443 149.993 212.683 149.674L219.551 140.554C225.131 141.02 230.643 140.565 235.9 139.29L244.391 147.229C244.692 147.512 245.129 147.568 245.494 147.393L257.838 141.173C258.203 140.988 258.397 140.601 258.333 140.206L256.556 128.885C260.655 125.446 264.224 121.322 267.045 116.623L278.674 116.425C279.084 116.421 279.432 116.155 279.554 115.775L283.677 102.734C283.799 102.354 283.661 101.934 283.332 101.694L273.954 94.8065C274.345 89.3261 273.796 83.9044 272.423 78.7165C280.027 70.5213 281.115 70.5016 280.53 69.41C273.927 57.5297 274.284 56.513 273.023 56.6808L261.522 58.2666C257.961 54.1881 253.714 50.6197 248.89 47.7781C248.295 36.6867 249.037 35.8534 247.843 35.4709C234.526 31.4846 234.192 30.5774 233.453 31.5545L226.584 40.6744C221.005 40.2091 215.493 40.6633 210.235 41.9388C201.885 34.4404 201.755 33.2693 200.652 33.8351C188.547 40.2099 187.617 39.7948 187.803 41.0229L189.579 52.3437C185.48 55.7828 181.912 59.9069 179.09 64.6054C167.995 65.0263 166.964 64.2601 166.581 65.4538C162.731 78.4306 161.785 78.7879 162.803 79.5346L172.182 86.4222C171.79 91.9026 172.34 97.3244 173.712 102.512C166.137 110.684 165.02 110.727 165.606 111.819C172.198 123.7 171.852 124.716 173.112 124.548Z" fill="url(#paint2_linear)"/>
<g opacity="0.3">
<path opacity="0.3" d="M89.6047 109.568C90.7766 101.128 98.7077 95.3275 107.29 96.6296C115.872 97.9317 121.909 105.851 120.737 114.279C119.565 122.719 111.634 128.52 103.052 127.218C94.4581 125.927 88.4328 118.008 89.6047 109.568ZM106.911 99.3641C99.9388 98.3105 93.3572 102.963 92.3865 109.994C91.4277 116.919 96.3757 123.43 103.431 124.495C110.486 125.56 116.997 120.79 117.955 113.865C118.914 106.916 113.943 100.429 106.911 99.3641Z" fill="url(#paint3_linear)"/>
</g>
<g opacity="0.3">
<path opacity="0.3" d="M88.9065 147.661C86.7876 146.69 84.7634 145.53 82.8457 144.228C82.2775 143.838 82.0763 143.104 82.3485 142.512C82.3841 142.441 82.4196 142.37 82.4669 142.311C82.9049 141.683 83.7809 141.541 84.4201 141.979C86.61 143.482 88.9894 144.761 91.4634 145.791C110.155 153.521 131.415 145.341 139.618 127.549C139.831 127.099 140.033 126.638 140.222 126.164C147.987 107.295 138.588 85.7037 119.447 77.7726C100.342 69.8651 78.4422 78.5893 70.6886 97.3991C66.0838 108.597 68.8538 116.528 68.3211 117.677C67.7529 118.92 65.8708 118.636 65.6577 117.286C64.4739 109.888 65.4091 102.063 68.7354 94.8422C83.0943 63.6741 128.811 64.9526 142.518 96.8664C146.733 106.692 146.851 117.475 142.826 127.241C142.613 127.75 142.4 128.248 142.175 128.745C138.008 137.789 130.634 144.785 121.247 148.561C111.35 152.55 100.401 152.467 90.4217 148.336C89.9127 148.111 89.4155 147.898 88.9065 147.661Z" fill="url(#paint4_linear)"/>
</g>
<g opacity="0.3">
<path opacity="0.3" d="M213.093 90.413C213.887 84.6938 219.262 80.7634 225.077 81.6457C230.893 82.5281 234.984 87.8943 234.189 93.6055C233.395 99.3247 228.021 103.255 222.206 102.373C216.382 101.498 212.299 96.1322 213.093 90.413ZM224.821 83.4987C220.096 82.7848 215.636 85.9371 214.978 90.7018C214.329 95.3943 217.682 99.806 222.462 100.528C227.243 101.25 231.655 98.0172 232.304 93.3248C232.954 88.6163 229.585 84.2206 224.821 83.4987Z" fill="url(#paint5_linear)"/>
</g>
<g opacity="0.3">
<path opacity="0.3" d="M212.62 116.226C211.184 115.568 209.813 114.782 208.513 113.899C208.128 113.635 207.992 113.137 208.176 112.736C208.2 112.688 208.225 112.64 208.257 112.6C208.553 112.175 209.147 112.079 209.58 112.375C211.064 113.394 212.676 114.26 214.353 114.958C227.018 120.196 241.425 114.653 246.984 102.597C247.128 102.293 247.264 101.98 247.393 101.659C252.655 88.8729 246.286 74.242 233.315 68.8677C220.369 63.5095 205.529 69.4212 200.275 82.1671C197.155 89.7552 199.032 95.1295 198.671 95.9076C198.286 96.7498 197.011 96.5573 196.866 95.6429C196.064 90.6296 196.698 85.3275 198.952 80.4345C208.682 59.3143 239.66 60.1806 248.949 81.8061C251.804 88.4638 251.885 95.7712 249.157 102.389C249.013 102.734 248.869 103.071 248.716 103.408C245.893 109.536 240.895 114.276 234.534 116.835C227.829 119.538 220.409 119.482 213.647 116.683C213.302 116.53 212.965 116.386 212.62 116.226Z" fill="url(#paint6_linear)"/>
</g>
<path d="M105.165 27.5314C105.608 27.5314 106.05 27.5349 106.491 27.5416" stroke="#D94396" stroke-width="15" stroke-linecap="round" stroke-linejoin="round" stroke-dasharray="45 45"/>
<path d="M85.4617 243.876C85.4854 243.876 85.5209 243.876 85.5446 243.876L122.785 243.841C123.709 243.841 124.454 243.095 124.454 242.172C124.454 241.248 123.709 240.491 122.785 240.514L85.5446 240.55C84.6212 240.55 83.8755 241.296 83.8755 242.219C83.8755 243.107 84.5739 243.829 85.4617 243.876Z" fill="url(#paint7_linear)"/>
<path d="M137.215 207.405C137.203 207.429 137.191 207.452 137.179 207.476L121.507 241.26C121.116 242.101 121.483 243.083 122.312 243.474C123.14 243.864 124.146 243.497 124.525 242.657L140.198 208.873C140.589 208.032 140.222 207.05 139.393 206.659C138.576 206.292 137.617 206.624 137.215 207.405Z" fill="url(#paint8_linear)"/>
<path d="M66.546 324.549C66.3566 324.549 66.179 324.513 65.9896 324.419C65.2794 324.087 64.9479 323.187 65.2557 322.406L94.6719 247.771C94.9796 246.99 95.7964 246.634 96.5185 246.966C97.2288 247.297 97.5602 248.197 97.2524 248.978L67.8363 323.625C67.5995 324.206 67.0905 324.549 66.546 324.549Z" fill="url(#paint9_linear)"/>
<path d="M99.6799 324.549C99.1354 324.549 98.6145 324.206 98.3896 323.626L68.9735 248.99C68.6657 248.209 68.9971 247.309 69.7074 246.978C70.4176 246.646 71.2463 247.002 71.554 247.783L100.97 322.418C101.278 323.199 100.947 324.099 100.236 324.431C100.059 324.513 99.8693 324.549 99.6799 324.549Z" fill="url(#paint10_linear)"/>
<path d="M266.173 324.549C265.984 324.549 265.806 324.513 265.617 324.419C264.906 324.087 264.575 323.188 264.883 322.406L294.299 247.771C294.607 246.99 295.423 246.634 296.145 246.966C296.856 247.297 297.187 248.197 296.879 248.978L267.463 323.614C267.238 324.205 266.717 324.549 266.173 324.549V324.549Z" fill="url(#paint11_linear)"/>
<path d="M299.306 324.549C298.761 324.549 298.241 324.206 298.016 323.626L268.599 248.99C268.292 248.209 268.623 247.309 269.333 246.978C270.044 246.646 270.872 247.002 271.18 247.783L300.596 322.418C300.904 323.199 300.573 324.099 299.862 324.431C299.685 324.513 299.495 324.549 299.306 324.549Z" fill="url(#paint12_linear)"/>
<path d="M261.899 242.515H304.503V238.123H261.899C262.811 238.111 262.811 242.515 261.899 242.515Z" fill="url(#paint13_linear)"/>
<path d="M304.112 242.515C304.337 242.515 304.515 242.337 304.515 242.113V238.514C304.515 238.289 304.337 238.111 304.112 238.111H261.012C260.787 238.111 260.609 237.934 260.609 237.709V237.52C260.609 237.295 260.787 237.117 261.012 237.117H306.953C307.971 237.117 308.788 237.946 308.788 238.952V241.757C308.788 242.716 308.007 243.497 307.048 243.497H261C260.775 243.497 260.598 243.32 260.598 243.095V242.906C260.598 242.681 260.775 242.503 261 242.503H304.112V242.515Z" fill="url(#paint14_linear)"/>
<path d="M215.413 103.19C215.378 102.752 214.928 102.373 214.182 102.077C214.999 101.627 215.461 101.142 215.413 100.668C215.295 99.2241 210.738 98.4192 205.221 98.869C199.717 99.3188 195.337 100.846 195.455 102.278C195.491 102.716 195.941 103.095 196.687 103.391C195.87 103.841 195.408 104.326 195.455 104.8C195.491 105.238 195.941 105.616 196.687 105.912C195.87 106.362 195.408 106.847 195.455 107.321C195.491 107.759 195.941 108.138 196.687 108.434C195.87 108.884 195.408 109.369 195.455 109.842C195.503 110.482 196.426 110.991 197.918 111.334C197.894 111.807 197.906 112.316 197.953 112.885C198.166 115.536 201.149 117.62 205.103 117.62C209.057 117.62 212.466 114.779 212.501 112.115C212.513 111.464 212.478 110.884 212.419 110.375C214.313 109.748 215.461 108.978 215.402 108.221C215.366 107.783 214.916 107.404 214.171 107.108C214.987 106.658 215.449 106.173 215.402 105.699C215.366 105.261 214.916 104.882 214.171 104.587C214.999 104.149 215.461 103.663 215.413 103.19Z" fill="url(#paint15_linear)"/>
<path d="M202.677 111.926C201.044 111.926 199.541 111.807 198.31 111.571C198.238 111.559 198.191 111.488 198.203 111.417C198.215 111.346 198.286 111.298 198.357 111.31C200.298 111.677 202.879 111.76 205.637 111.535C207.898 111.357 210.005 110.99 211.745 110.481C211.816 110.458 211.887 110.505 211.911 110.576C211.934 110.647 211.887 110.718 211.816 110.742C210.064 111.251 207.933 111.618 205.661 111.807C204.643 111.878 203.636 111.926 202.678 111.926H202.677Z" fill="url(#paint16_linear)"/>
<path d="M202.713 109.381C200.582 109.381 198.688 109.179 197.351 108.801C197.28 108.777 197.244 108.706 197.256 108.635C197.28 108.564 197.351 108.528 197.422 108.54C199.328 109.085 202.405 109.25 205.649 108.99C208.857 108.73 211.84 108.078 213.651 107.25C213.722 107.214 213.793 107.25 213.829 107.309C213.864 107.38 213.829 107.451 213.769 107.487C211.935 108.327 208.916 108.99 205.684 109.25C204.655 109.345 203.66 109.381 202.713 109.381H202.713Z" fill="url(#paint17_linear)"/>
<path d="M202.678 106.859C200.381 106.859 198.369 106.622 197.019 106.173C196.948 106.149 196.913 106.078 196.937 106.007C196.96 105.936 197.031 105.9 197.102 105.924C198.984 106.54 202.169 106.753 205.637 106.469C208.845 106.208 211.828 105.557 213.639 104.728C213.71 104.693 213.781 104.728 213.817 104.788C213.852 104.859 213.817 104.93 213.758 104.965C211.923 105.806 208.904 106.469 205.673 106.729C204.643 106.812 203.637 106.859 202.678 106.859Z" fill="url(#paint18_linear)"/>
<path d="M202.702 104.326C200.879 104.326 199.222 104.184 197.931 103.888C197.86 103.876 197.813 103.805 197.837 103.734C197.849 103.663 197.92 103.616 197.991 103.639C199.932 104.066 202.714 104.184 205.638 103.947C208.81 103.687 211.793 103.048 213.592 102.231C213.663 102.195 213.734 102.231 213.77 102.302C213.805 102.373 213.77 102.444 213.699 102.479C211.864 103.308 208.857 103.971 205.649 104.219C204.655 104.279 203.649 104.326 202.702 104.326Z" fill="url(#paint19_linear)"/>
<path d="M191.763 90.4053C191.088 88.0378 189.952 85.8242 188.425 83.8947C185.146 79.7634 179.795 71.3588 179.133 59.8764C178.174 43.1856 192.982 34.8283 206.489 35.9647C219.996 37.1011 233.325 47.1511 231.869 62.6819C230.969 72.2348 225.618 79.4793 221.641 83.6461C219.108 86.2859 217.308 89.5293 216.338 93.0451C215.142 97.3539 212.301 102.74 205.542 103.06C196.794 103.486 193.16 95.3415 191.763 90.4053Z" fill="url(#paint20_linear)"/>
<path d="M207.767 99.7332L212.49 68.9913C212.585 68.352 212.904 67.9259 213.188 68.0443C213.473 68.1508 213.626 68.7545 213.532 69.3937C213.532 69.4056 213.52 69.4292 213.52 69.4529L208.134 99.9108C208.098 100.136 207.98 100.29 207.873 100.23C207.791 100.171 207.731 99.9581 207.767 99.7332H207.767Z" fill="url(#paint21_linear)"/>
<path d="M202.866 99.9817L198.143 69.2398C198.049 68.6005 197.729 68.1744 197.445 68.2928C197.161 68.3993 197.007 69.003 197.102 69.6422C197.102 69.6541 197.114 69.6777 197.114 69.7014L202.5 100.159C202.535 100.384 202.653 100.538 202.76 100.479C202.843 100.42 202.902 100.207 202.867 99.9817H202.866Z" fill="url(#paint22_linear)"/>
<path d="M212.466 66.3633C212.348 66.1739 212.063 66.1028 211.85 66.1975L209.222 67.4286L208.311 64.8244C208.264 64.6942 208.145 64.564 207.991 64.5048C207.684 64.3746 207.328 64.4929 207.186 64.7534V64.7652L205.02 68.7071L203.008 63.0843V63.0724C202.96 62.9304 202.854 62.812 202.7 62.7292C202.369 62.5398 201.919 62.6345 201.706 62.9304L198.675 67.0972C198.557 67.2629 198.592 67.4997 198.782 67.618C198.983 67.7482 199.267 67.7246 199.421 67.547L202.084 64.5758L204.487 69.9145C204.523 69.9974 204.594 70.0802 204.701 70.1157C204.925 70.2223 205.21 70.1513 205.328 69.95L207.648 66.233L208.524 68.1152L208.536 68.127C208.548 68.1389 208.548 68.1507 208.56 68.1626C208.678 68.352 208.962 68.423 209.175 68.3283L212.3 66.8723C212.501 66.7894 212.584 66.5527 212.466 66.3633Z" fill="white"/>
<path d="M221.747 79.6805C221.617 79.6805 221.499 79.645 221.392 79.5621C221.132 79.3609 221.072 78.9939 221.274 78.7216C222.079 77.6326 222.812 76.5199 223.464 75.3953C223.629 75.1112 223.996 75.0047 224.28 75.1704C224.564 75.3361 224.671 75.7031 224.505 75.9872C223.831 77.1473 223.073 78.3073 222.232 79.4319C222.114 79.5976 221.925 79.6805 221.747 79.6805Z" fill="white"/>
<path d="M225.629 73.0041C225.547 73.0041 225.464 72.9923 225.393 72.9568C225.085 72.8265 224.955 72.4714 225.085 72.1636C230.08 60.6576 225.771 51.0101 225.724 50.9154C225.582 50.6194 225.712 50.2525 226.02 50.1222C226.328 49.9802 226.683 50.1222 226.813 50.4182C227.003 50.8325 231.382 60.6576 226.186 72.649C226.079 72.8739 225.866 73.0041 225.629 73.0041Z" fill="white"/>
<path d="M130.541 309.657C130.541 309.657 129.76 313.836 129.358 317.979C129.204 319.601 130.435 321.021 132.057 321.104C137.573 321.388 149.375 321.944 153.613 321.802C154.252 321.779 154.678 321.128 154.441 320.536C154.252 320.039 153.873 319.636 153.388 319.399L133.963 310.249L130.541 309.657Z" fill="url(#paint23_linear)"/>
<path d="M129.949 307.195L130.494 312.214C130.494 312.214 133.891 313.836 136.247 312.072L134.885 306.473L129.949 307.195Z" fill="url(#paint24_linear)"/>
<path d="M131.3 213.028C131.028 214.33 129.3 278.288 135.87 307.017C135.976 307.491 135.739 307.964 135.29 308.142C134.236 308.556 132.176 309.16 129.714 309.219C128.957 309.243 128.27 308.734 128.069 308C126.175 301.335 117.131 267.918 116.208 236.075C115.178 200.492 116.219 234.868 116.219 234.868L117.226 212.886L131.3 213.028Z" fill="url(#paint25_linear)"/>
<path d="M108.075 311.622C108.075 311.622 106.879 313.729 105.684 319.328C105.471 320.346 106.169 321.317 107.199 321.435C109.022 321.637 111.828 321.885 114.077 321.897C115.118 321.897 115.935 321.009 115.817 319.979C115.592 317.932 114.846 314.558 112.467 311.906L108.075 311.622Z" fill="url(#paint26_linear)"/>
<path d="M107.103 305.171L108.417 312.759C108.417 312.759 109.778 313.788 112.501 313.078L111.921 304.922L107.103 305.171Z" fill="url(#paint27_linear)"/>
<path d="M104.215 214.732C98.2966 248.434 104.63 298.163 106.831 307.905C106.962 308.497 107.447 308.959 108.039 309.065C109.057 309.243 110.75 309.397 112.419 308.935C112.999 308.769 113.401 308.26 113.425 307.668C113.804 299.808 113.709 251.559 119.107 232.548C119.379 231.589 119.983 230.748 120.8 230.168L130.98 223.078L131.868 211.465L104.215 214.732Z" fill="url(#paint28_linear)"/>
<path d="M139.717 151.112C139.62 151.111 139.523 151.114 139.426 151.111C122.208 151.046 105.174 155.189 105.174 155.189C99.8944 184.286 103.706 217.951 103.706 217.951C116.644 221.479 131.335 216.14 131.335 216.14C133.608 203.983 144.001 169.785 144.001 169.785C144.539 169.723 145.055 169.641 145.581 169.568C155.713 167.878 149.465 150.879 139.717 151.112Z" fill="url(#paint29_linear)"/>
<path d="M141.537 151.024C131.05 148.391 127.088 172.461 142.146 170.38C149.634 171.423 156.251 171.034 162.058 169.691C159.375 163.788 159.218 157.222 159.432 153.432C153.324 153.529 147.391 152.8 141.537 151.024Z" fill="url(#paint30_linear)"/>
<path d="M196.708 141.505C195.693 139.138 193.429 139.444 193.429 139.444C188.124 148.743 173.338 153.202 159.423 153.417C159.21 157.208 159.37 163.762 162.05 169.676C186.703 164.003 196.708 141.505 196.708 141.505Z" fill="url(#paint31_linear)"/>
<path d="M196.189 141.867C196.202 142.436 194.056 142.687 193.541 140.209C193.796 139.162 194.449 134.564 195.307 133.906C199.878 130.373 207.87 126.6 207.87 126.6C208.644 127.971 207.454 128.758 207.454 128.758L203.441 131.082C203.753 132.434 204.252 133.642 204.209 135.166C204.184 136.314 203.685 137.404 202.853 138.229C202.036 139.046 200.92 140.099 199.937 140.895C198.082 142.394 196.189 141.867 196.189 141.867Z" fill="url(#paint32_linear)"/>
<path d="M201.48 132.785L197.984 134.355L196.411 136.474L198.114 139.982C198.114 139.982 200.317 135.508 201.238 134.671C202.159 133.834 201.976 133.254 201.48 132.785Z" fill="url(#paint33_linear)"/>
<path d="M111.424 171.475C119.328 167.575 113.807 153.613 105.193 155.17C105.193 155.17 89.4095 165.616 86.6748 179.068C89.6335 179.325 95.0055 180.156 100.242 182.88C101.467 176.539 111.424 171.475 111.424 171.475L111.424 171.475Z" fill="url(#paint34_linear)"/>
<path d="M124.913 186.911C124.913 186.911 107.214 196.63 101.389 188.08C100.174 186.301 99.9069 184.548 100.231 182.88C94.9941 180.155 89.6221 179.324 86.6634 179.068C85.8358 183.126 86.1913 187.448 88.5353 191.857C98.6884 210.99 127.186 191.274 127.186 191.274L124.913 186.911Z" fill="url(#paint35_linear)"/>
<path d="M123.617 137.351L118.136 152.716C118.041 152.976 118.148 153.248 118.385 153.39C119.829 154.207 125.049 156.587 131.394 152.645C132.057 152.23 132.507 151.556 132.613 150.786L134.472 137.457L123.617 137.351Z" fill="url(#paint36_linear)"/>
<path d="M135.333 123.168C135.333 123.168 141.107 134.237 140.322 138.678C139.537 143.13 132.28 142.753 125.976 139.083L121.645 127.147L135.333 123.168Z" fill="url(#paint37_linear)"/>
<path d="M126.296 133.247C126.556 133.14 126.65 132.82 126.496 132.584C126.033 131.862 125.166 130.396 124.891 129.106C124.891 129.106 123.848 128.422 127.587 127.563C131.326 126.703 136.899 125.355 138.101 122.192C139.267 119.101 136.329 111.293 131.499 117.458C131.31 117.695 130.955 117.696 130.777 117.459C130.005 116.431 127.953 114.304 125.091 115.564C122.406 116.741 122.09 118.706 122.116 119.689C122.128 119.985 121.868 120.198 121.572 120.152C120.222 119.882 116.978 119.639 115.434 122.957C114.16 125.694 114.968 127.255 115.692 128.023C115.929 128.271 115.823 128.673 115.492 128.769C114.604 129.031 113.446 129.779 113.544 131.862C113.68 134.75 116.899 134.519 117.822 134.387C117.976 134.363 118.118 134.422 118.225 134.529C119.008 135.403 122.519 139.125 126.355 139.604C126.687 139.65 126.946 139.318 126.839 138.999L125.22 134.16C125.149 133.936 125.255 133.687 125.468 133.592L126.296 133.247Z" fill="url(#paint38_linear)"/>
<path d="M126.949 133.932C126.949 133.932 122.8 131.04 122.473 133.443C122.146 135.847 126.197 136.964 128.219 136.084L126.949 133.932Z" fill="url(#paint39_linear)"/>
<path d="M121.205 202.313L131.058 168.761C131.167 168.383 131.5 168.101 131.891 168.056C133.633 167.867 138.691 167.333 144.53 166.876C151.566 166.332 159.725 165.902 164.599 166.35C165.297 166.414 165.706 167.151 165.394 167.776C162.586 173.368 151.019 196.112 145.251 203.554C145.06 203.801 144.763 203.942 144.455 203.939L122.12 203.574C121.48 203.57 121.023 202.939 121.205 202.313Z" fill="url(#paint40_linear)"/>
<path d="M123.581 194.208C123.581 194.208 122.281 188.683 122.827 186.734C123.385 184.784 124.444 182.27 127.932 182.862C131.42 183.442 135.529 184.95 135.529 184.95C135.529 184.95 135.299 187.494 132.653 186.659L134.29 187.948C134.29 187.948 134.039 189.983 131.809 188.878L133.325 190.582C133.325 190.582 132.354 192.256 130.705 191.167C129.079 190.055 128.264 194.903 123.581 194.208L123.581 194.208Z" fill="url(#paint41_linear)"/>
<path d="M143.823 176.91C143.812 178.472 145.07 179.747 146.633 179.758C148.195 179.769 149.47 178.511 149.481 176.948C149.492 175.386 148.234 174.11 146.671 174.1C145.109 174.101 143.834 175.359 143.823 176.91Z" fill="url(#paint42_linear)"/>
<path d="M132.08 178.7L131.359 178.482L133.369 171.843C133.696 170.768 134.578 169.957 135.669 169.739C141.892 168.48 158.253 168.331 158.939 168.324L158.946 169.07C158.78 169.068 141.958 169.226 135.817 170.462C135 170.623 134.344 171.234 134.09 172.049L132.08 178.7Z" fill="white"/>
<path d="M86.9854 310.557C87.3286 310.865 90.6313 317.529 90.6313 317.529C90.6313 317.529 96.897 318.973 95.0585 314.404L91.744 308.391L86.9854 310.557Z" fill="url(#paint43_linear)"/>
<path d="M45.2475 184.144C45.2475 184.144 40.5953 192.359 35.8604 196.337L45.65 201.806C45.65 201.806 47.8517 193.105 52.8945 190.56L45.2475 184.144Z" fill="url(#paint44_linear)"/>
<path d="M47.5875 202.577C38.7878 196.862 36.7084 215.005 46.3004 225.078C46.3004 225.078 55.948 240.313 77.433 242.468L78.6285 239.792C78.6285 239.792 61.5233 231.908 56.2556 219.799C52.4537 211.058 50.2952 205.942 47.5875 202.577Z" fill="url(#paint45_linear)"/>
<path d="M6.18002 272.689C5.15015 274.204 1.07806 308.58 0.438834 321.282C0.391483 322.146 1.07806 322.856 1.94219 322.856C2.68796 322.856 3.31534 322.312 3.43372 321.578L10.8913 273.778L6.18002 272.689Z" fill="url(#paint46_linear)"/>
<path d="M38.9584 272.689C39.9883 274.204 44.0603 308.58 44.6996 321.282C44.7469 322.146 44.0603 322.856 43.1962 322.856C42.4504 322.856 41.8231 322.312 41.7047 321.578L34.2471 273.778L38.9584 272.689Z" fill="url(#paint47_linear)"/>
<path d="M0.000179577 270.002V270.381C-0.023495 273.079 2.29665 275.293 5.20867 275.34L39.6913 275.932C42.556 275.98 44.9471 273.908 45.0892 271.256L45.1128 270.913C45.2549 268.143 42.9111 265.811 39.9162 265.752L5.42175 265.137C2.46238 265.077 0.0356924 267.267 0.000179577 270.002Z" fill="url(#paint48_linear)"/>
<path d="M63.7492 320.027C57.6174 320.027 54.9066 319.506 53.6992 319.021C53.936 320.027 54.8356 320.82 55.9602 320.82H77.6465C78.3804 320.82 78.842 320.122 78.6645 319.494C76.1904 319.696 70.9346 320.027 63.7492 320.027Z" fill="url(#paint49_linear)"/>
<path d="M78.6518 319.494C78.6163 319.364 78.569 319.246 78.4742 319.127C76.817 317.02 73.5025 313.706 68.9924 313.765C62.3753 313.86 60.0788 314.57 54.9413 313.801L53.7339 317.813C53.6155 318.228 53.6037 318.63 53.6984 319.009C54.9058 319.494 57.6284 320.015 63.7484 320.015C70.9338 320.027 76.1896 319.696 78.6518 319.494Z" fill="url(#paint50_linear)"/>
<path d="M56.4324 309.48L54.9409 314.534C54.9409 314.534 58.2317 316.038 61.1319 314.83L61.7001 310.451L56.4324 309.48Z" fill="url(#paint51_linear)"/>
<path d="M24.6025 251.831C24.6025 251.831 61.2987 254.826 68.8274 258.366C76.356 261.905 62.6837 311.575 62.6837 311.575C62.6837 311.575 60.6358 312.558 56.0784 311.149C56.0784 311.149 60.7542 274.5 57.274 266.557L17.5474 260.058L24.6025 251.831Z" fill="url(#paint52_linear)"/>
<path d="M2.50215 251.523C2.50215 251.523 1.30656 254.4 1.35391 258.223C1.42493 263.515 5.67459 267.8 10.9541 268.06L54.3267 270.037C55.2382 270.085 56.0194 270.712 56.2443 271.6C57.2624 275.542 62.2459 287.651 86.5957 311.812C87.2467 312.451 88.2529 312.569 89.0223 312.072L92.4907 309.882C92.8577 309.657 92.9761 309.172 92.7512 308.805L67.49 265.681C66.1642 263.491 64.0334 261.905 61.5475 261.277L24.5791 251.831L2.50215 251.523Z" fill="url(#paint53_linear)"/>
<path d="M37.5295 194.974C37.2232 194.955 36.9126 195.029 36.6403 195.201C31.562 198.29 7.63847 214.673 1.71973 251.831C1.71973 251.831 13.4271 254.684 24.6135 251.831C24.6135 251.831 40.2508 230.808 46.2997 225.078C52.8728 217.412 52.158 208.809 47.5868 202.577C46.543 201.28 45.4202 200.235 44.0862 199.356C41.1032 197.39 39.3157 196.041 38.3924 195.307C38.1379 195.106 37.8358 194.994 37.5295 194.974Z" fill="url(#paint54_linear)"/>
<path d="M76.1323 238.866L78.4077 237.835L85.3629 234.937C86.2051 234.592 87.1411 234.59 87.9804 234.941L94.8618 237.818L77.6625 240.685L76.1323 238.866Z" fill="url(#paint55_linear)"/>
<path d="M101.372 317.15C96.4707 320.832 93.9925 322.044 92.7378 322.395C93.5339 323.06 94.7155 323.145 95.6254 322.463L112.952 309.428C113.534 308.985 113.489 308.154 112.969 307.759C111.105 309.405 107.111 312.832 101.372 317.15Z" fill="url(#paint56_linear)"/>
<path d="M112.969 307.759C112.865 307.673 112.749 307.61 112.608 307.57C110.024 306.884 105.39 306.251 101.82 309.016C96.5987 313.066 95.1746 315.023 90.6193 317.496L92.0582 321.414C92.1997 321.809 92.4498 322.137 92.7499 322.384C94.0046 322.032 96.4829 320.82 101.384 317.138C107.111 312.831 111.105 309.405 112.969 307.759Z" fill="url(#paint57_linear)"/>
<path d="M52.8298 171.916C52.8298 171.916 57.2552 179.472 58.0015 183.635C58.736 187.799 59.9616 190.405 55.2339 191.832C50.4944 193.258 46.124 191.339 43.4214 187.437C43.4214 187.437 39.1918 181.423 39.6485 178.705C40.0937 175.964 52.8298 171.916 52.8298 171.916Z" fill="url(#paint58_linear)"/>
<path d="M44.7014 184.219L45.3179 184.144C45.3179 184.144 42.1763 179.278 44.2849 178.106C46.3934 176.934 54.949 174.083 56.4663 170.75C57.9349 167.534 55.8335 163.853 53.2736 163.054C53.1084 163.005 52.9417 163.098 52.8806 163.263L52.7222 163.664C52.6125 163.947 52.2217 163.954 52.1066 163.669C51.9911 163.407 51.6243 163.391 51.503 163.65C51.0301 164.651 49.6495 166.352 45.5391 167.632C39.6943 169.448 36.0392 172.343 36.4426 176.479C36.4633 176.74 36.2009 176.914 35.9654 176.805C35.4943 176.587 34.7727 176.543 33.9219 177.457C32.448 179.039 33.5452 182.531 37.4946 185.038C37.6827 185.159 37.7153 185.419 37.5478 185.571C36.9503 186.074 36.0971 187.201 38.7726 188.249C41.519 189.31 43.0143 188.983 43.5731 188.764C43.7277 188.707 43.8122 188.554 43.7785 188.4L43.109 184.77C43.0756 184.58 43.2078 184.404 43.3975 184.382L44.7014 184.219Z" fill="url(#paint59_linear)"/>
<path d="M44.9414 184.968C44.9414 184.968 43.0081 180.033 40.8935 181.738C38.779 183.443 42.7606 187.299 44.6195 187.273L44.9414 184.968Z" fill="url(#paint60_linear)"/>
<path d="M205.115 157.463C222.95 154.476 231.307 169.033 230.684 172.086C230.6 172.488 230.978 172.832 231.381 172.727C233.43 172.175 237.954 171.5 240.75 175.011C243.217 178.118 241.363 181.038 239.844 182.644C239.476 183.034 239.782 183.662 240.315 183.592C244.08 183.128 252.26 183.03 253.579 190.692C254.804 197.833 249.828 199.845 246.879 200.406C246.381 200.499 246.261 201.162 246.687 201.435C248.152 202.374 249.852 204.307 249.156 208.106C248.064 214.069 236.37 213.555 234.997 213.469C234.914 213.468 234.832 213.433 234.749 213.397L216.048 202.662C215.906 202.578 215.8 202.436 215.777 202.27L212.055 180.421C212.02 180.243 212.079 180.066 212.21 179.936L200.036 162.67C195.61 162.02 204.902 157.498 205.115 157.463L205.115 157.463Z" fill="url(#paint61_linear)"/>
<path d="M225.833 197.046C216.622 196.003 221.574 209.851 229.923 219.215C235.652 225.52 241.405 235.389 241.405 235.389L251.318 232.406C245.404 215.351 232.975 203.042 225.833 197.046Z" fill="url(#paint62_linear)"/>
<path d="M220.449 192.942C220.449 192.942 209.062 192.801 208.484 194.704C208.11 195.933 204.009 203.879 201.685 211.561C200.409 215.757 201.237 220.319 203.919 223.801C208.881 230.231 218.962 244.926 218.962 244.926L242.249 244.501C241.922 239.089 230.009 219.188 230.009 219.188C231.794 211.662 231.467 202.07 225.82 197.037C222.693 194.25 220.449 192.942 220.449 192.942Z" fill="url(#paint63_linear)"/>
<path d="M207.121 184.102C207.238 184.493 209.975 190.934 210.422 194.563C210.865 198.166 221.418 196.08 219.907 193.106L212.603 178.729L207.121 184.102Z" fill="url(#paint64_linear)"/>
<path d="M195.232 171.407C195.232 171.407 193.785 177.049 197.732 184.647C201.691 192.245 206.189 192.256 208.657 189.823C211.126 187.403 214.166 183.279 213.462 175.938C212.758 168.609 197.321 164.226 195.232 171.407Z" fill="url(#paint65_linear)"/>
<path d="M207.968 176.339C207.968 176.339 201.4 166.237 195.201 174.165L195.087 177.053C195.087 177.053 187.845 176.171 189.128 169.533C190.411 162.895 196.683 158.756 204.737 161.652C212.791 164.549 217.401 167.507 217.907 173.285C218.414 179.063 213.824 177.785 213.824 177.785C213.824 177.785 212.331 173.71 210.201 173.29C208.071 172.859 208.62 176.032 208.62 176.032L207.968 176.339Z" fill="url(#paint66_linear)"/>
<path d="M209.65 176.26C209.65 176.26 206.242 171.09 209.747 170.33C213.253 169.569 212.694 175.368 212.31 177.509L209.65 176.26Z" fill="url(#paint67_linear)"/>
<path d="M215.873 244.125C215.837 244.125 215.802 244.125 215.778 244.125L172.488 244.077C171.423 244.077 170.547 243.213 170.547 242.136C170.547 241.071 171.423 240.183 172.488 240.195L215.778 240.242C216.843 240.242 217.719 241.106 217.719 242.183C217.707 243.237 216.891 244.077 215.873 244.125Z" fill="url(#paint68_linear)"/>
<path d="M133.567 204.824H169.612C172.275 204.824 174.69 206.363 175.827 208.766L192.494 244.101H147.689C145.973 244.101 144.434 243.059 143.806 241.461L130.88 208.754C130.146 206.872 131.531 204.824 133.567 204.824Z" fill="url(#paint69_linear)"/>
<path d="M158.958 222.948C159.739 225.374 159.159 227.73 157.668 228.215C156.176 228.701 154.33 227.114 153.548 224.688C152.767 222.261 153.347 219.905 154.839 219.42C156.342 218.947 158.177 220.521 158.958 222.948Z" fill="url(#paint70_linear)"/>
<path d="M216.19 241.171C226.19 242.438 247.283 245.023 248.625 244.445C249.492 244.072 250.847 243.182 252.001 242.373C253.31 241.459 253.854 239.805 253.331 238.298L251.288 232.389L237.967 236.44L232.073 237.986C226.753 239.381 218.255 238.216 216.576 237.967C214.208 237.748 214.046 240.831 216.19 241.171Z" fill="url(#paint71_linear)"/>
<path d="M310.682 245.474C310.824 244.989 310.635 244.48 310.15 244.089C309.664 243.699 308.954 243.486 308.196 243.486H52.9328C51.9384 243.486 51.0151 243.817 50.4824 244.373C49.9497 244.93 49.8787 245.628 50.293 246.22L53.063 250.186C53.7022 251.097 55.0635 251.677 56.5787 251.677H306.456C307.865 251.677 309.072 251.014 309.333 250.103L310.682 245.474Z" fill="url(#paint72_linear)"/>
<path d="M216.192 241.172C218.547 241.403 218.645 238.25 216.573 237.967C216.391 237.94 215.912 237.876 215.912 237.876C215.912 237.876 209.795 235.311 206.094 235.812C201.086 236.49 198.063 238.321 198.117 240.623L210.85 240.496C210.85 240.496 213.101 240.785 216.192 241.172Z" fill="url(#paint73_linear)"/>
<path d="M299.518 192.328C303.279 177.7 299.616 154.972 294.516 158.817L285.138 205.227L296.016 208.116L299.518 192.328Z" fill="url(#paint74_linear)"/>
<path d="M244.646 181.772L245.288 179.626C245.65 178.394 246.557 177.384 247.751 176.905L259.403 172.169C259.403 172.169 259.574 170.676 256.93 169.669C254.286 168.662 254.889 165.701 254.889 165.701C254.889 165.701 258.506 167.331 263.797 169.925C266.822 171.403 268.537 174.036 269.434 176.021L296.014 208.143L292.922 210.286C288.85 213.109 283.233 211.76 280.894 207.39L266.455 179.975C259.267 182.148 251.989 182.593 244.646 181.772Z" fill="url(#paint75_linear)"/>
<path d="M294.806 315.801C294.806 315.801 295.256 318.322 295.445 321.317C295.516 322.596 294.581 323.696 293.303 323.827C288.875 324.253 278.79 325.046 272.35 324.123C271.451 323.992 271.095 322.88 271.758 322.264C274.41 319.79 280.826 314.972 291.385 313.931L294.806 315.801Z" fill="url(#paint76_linear)"/>
<path d="M297.008 310.119L294.77 315.611C294.463 316.369 293.705 316.831 292.888 316.748C292.344 316.689 291.693 316.582 291.053 316.393C289.787 316.014 289.077 314.664 289.455 313.398L291.148 307.74L297.008 310.119Z" fill="url(#paint77_linear)"/>
<path d="M335.302 320.181C335.302 320.181 330.816 323.933 329.064 328.751C328.578 330.077 329.596 331.474 331.005 331.474H340.238C341.588 331.474 342.629 330.254 342.393 328.929C341.813 325.59 340.12 320.193 335.302 320.181Z" fill="url(#paint78_linear)"/>
<path d="M340.866 315.292C340.866 315.292 339.954 319.305 339.268 321.956C339.138 322.442 338.629 322.702 338.155 322.536C336.758 322.039 335.622 321.814 334.793 321.933C334.414 321.98 334.083 321.66 334.071 321.282L333.988 314.617L340.866 315.292Z" fill="url(#paint79_linear)"/>
<path d="M317.001 225.043L289.716 308.284C289.716 308.284 294.948 311.717 297.446 311.563L329.857 244.669C329.857 244.669 335.527 285.887 332.781 315.481L342.061 316.191C342.061 316.191 357.154 240.562 345.719 214.661L317.001 225.043Z" fill="url(#paint80_linear)"/>
<path d="M329.68 243.947C329.691 243.947 329.703 243.947 329.715 243.947C329.857 243.924 329.964 243.793 329.94 243.651L328.886 235.247C328.863 235.105 328.733 234.998 328.591 235.022C328.448 235.046 328.342 235.176 328.366 235.318L329.419 243.722C329.431 243.853 329.549 243.947 329.68 243.947Z" fill="url(#paint81_linear)"/>
<path d="M311.887 151.792C295.776 152.088 294.498 158.859 294.498 158.836C294.297 171.626 297.203 182.138 299.647 192.324L308.442 226.321C308.691 227.316 309.673 227.955 310.691 227.777L347.506 221.48C348.394 221.326 348.986 220.462 348.796 219.586C343.079 192.501 330.862 169.501 330.862 169.501C333.999 153.757 311.887 151.792 311.887 151.792Z" fill="url(#paint82_linear)"/>
<path d="M299.458 190.821C299.482 190.821 299.494 190.821 299.518 190.809C299.66 190.773 299.754 190.631 299.731 190.477L296.665 176.391C296.629 176.249 296.487 176.154 296.333 176.178C296.191 176.213 296.097 176.355 296.12 176.509L299.186 190.596C299.222 190.738 299.328 190.821 299.458 190.821Z" fill="url(#paint83_linear)"/>
<path d="M301.683 232.749C302.843 232.11 304.204 231.932 305.483 232.252L308.04 232.891C308.584 233.021 309.129 232.654 309.188 232.098L311.839 208.506C315.154 210.08 319.936 209.891 321.511 209.772L315.414 237.59H294.071L301.683 232.749Z" fill="url(#paint84_linear)"/>
<path d="M319.369 210.128C320.872 210.128 321.95 210.009 322.068 209.997L322.269 209.974L330.319 172.449C330.354 172.295 330.26 172.153 330.106 172.129C329.952 172.094 329.81 172.188 329.786 172.342L321.819 209.488C320.624 209.595 314.22 210.021 310.846 207.63L317.818 175.018L316.362 172.271C316.291 172.141 316.126 172.082 315.995 172.153C315.865 172.224 315.806 172.39 315.877 172.52L317.238 175.089L310.23 207.843L310.373 207.95C312.811 209.784 316.741 210.128 319.369 210.128Z" fill="url(#paint85_linear)"/>
<path d="M304.872 136.751C304.872 136.751 309.114 149.072 310.791 153.734C312.018 157.144 303.13 163.044 300.352 156.774L297.75 147.935C297.75 147.935 300.46 134.624 304.872 136.751Z" fill="url(#paint86_linear)"/>
<path d="M284.631 129.766C284.629 130.062 291.047 148.349 291.047 148.349L301.408 144.456L297.903 126.213C297.903 126.225 284.666 124.865 284.631 129.766Z" fill="url(#paint87_linear)"/>
<path d="M296.061 130.651L298.658 140.104C298.692 140.223 298.703 140.353 298.702 140.472C298.697 141.241 298.489 143.891 295.792 143.505C293.345 143.156 291.109 142.88 289.684 143.545C289.042 143.836 288.729 144.58 288.962 145.244C289.542 146.906 290.936 150.633 292.631 153.675C292.97 154.293 293.738 154.535 294.379 154.256C296.327 153.382 300.389 151.433 303.282 149.098C303.675 148.781 303.868 148.285 303.776 147.788C303.344 145.37 302.046 138.021 302.002 135.914C301.956 133.936 304.192 132.449 305.167 131.887C305.488 131.7 305.715 131.394 305.812 131.04C306.129 129.775 306.41 126.889 302.745 126.236C301.976 126.1 301.484 125.363 301.644 124.594C301.962 123.081 301.883 120.831 299.001 119.994C296.071 119.133 294.212 120.884 293.267 122.239C292.884 122.78 292.173 122.953 291.56 122.676C291.217 122.52 290.791 122.505 290.339 122.881C289.731 123.386 288.809 123.225 288.364 122.571C287.521 121.31 285.967 120.033 283.333 120.866C278.647 122.348 278.834 127.736 280.529 130.672C282.225 133.608 287.21 131.725 289.568 129.8C291.366 128.333 294.082 129.24 295.286 129.758C295.675 129.926 295.957 130.248 296.061 130.651Z" fill="url(#paint88_linear)"/>
<path d="M302.913 139.377C302.913 139.377 300.18 134.125 302.027 132.493C303.861 130.86 306.96 131.154 306.849 135.238C306.718 140.327 302.913 139.377 302.913 139.377Z" fill="url(#paint89_linear)"/>
<path d="M223.379 278.063H227.309V320.571H223.379V278.063Z" fill="url(#paint90_linear)"/>
<path d="M242.568 321.4H208.145C208.145 319.991 209.293 318.843 210.701 318.843H240.011C241.42 318.843 242.568 319.979 242.568 321.4Z" fill="url(#paint91_linear)"/>
<path d="M247.67 276.595C247.67 278.915 245.764 280.821 243.444 280.821H208.606C206.286 280.821 204.38 278.915 204.38 276.595V272.772C204.38 270.451 206.286 268.546 208.606 268.546H243.444C245.764 268.546 247.67 270.451 247.67 272.772V276.595Z" fill="url(#paint92_linear)"/>
<path d="M196.331 249.724C196.331 249.724 190.495 250.624 183.926 255.015C182.896 255.702 182.328 256.909 182.481 258.14C183.263 264.367 186.506 284.526 197.16 304.224C197.716 305.265 197.882 306.473 197.633 307.621L195.787 316.239L192.354 319.459H201.197L207.08 303.525L204.558 302.732C202.605 302.117 201.268 300.317 201.232 298.269L200.936 281.164C201.185 273.541 196.26 268.285 196.26 268.285L210.394 267.599L196.331 249.724Z" fill="url(#paint93_linear)"/>
<path d="M188.884 321.021C188.079 322.075 197.561 323.471 202.343 321.163C202.343 321.163 208.984 309.61 208.984 303.667C208.984 303.667 208.452 302.46 204.557 302.732C204.557 302.732 202.332 316.405 199.976 317.943C197.62 319.47 193.394 318.097 193.394 318.097C193.394 318.097 190.08 319.47 188.884 321.021Z" fill="url(#paint94_linear)"/>
<path d="M208.606 268.546C208.535 268.415 193.395 266.723 193.395 266.723C193.395 266.723 193.892 271.327 192.341 277.66C190.79 283.993 168.571 311.445 168.571 311.445L170.903 318.831C163.694 321.341 156.604 321.743 149.631 320.11L164.073 311.445C164.073 311.445 177.591 265.385 185.866 257.158L201.042 251.914L208.606 268.546Z" fill="url(#paint95_linear)"/>
<path d="M242.567 241.734C242.567 241.734 251.291 254.708 252.002 260.626C252.712 266.545 249.611 268.948 240.46 269.351C231.31 269.741 206.877 269.741 206.877 269.741L186.02 251.914C186.02 251.914 201.219 246.492 205.161 244.953C209.126 243.426 242.567 241.734 242.567 241.734Z" fill="url(#paint96_linear)"/>
<path d="M170.016 316.345C170.016 316.345 172.526 318.772 170.833 321.483C170.833 321.483 150.958 325.01 145.56 323.412C145.56 323.412 146.685 320.855 152.757 317.943L152.307 318.287C151.739 318.725 152.071 319.624 152.793 319.589C156.794 319.352 165.08 318.63 170.016 316.345Z" fill="url(#paint97_linear)"/>
<defs>
<linearGradient id="paint0_linear" x1="378.452" y1="427.344" x2="84.3472" y2="792.604" gradientUnits="userSpaceOnUse">
<stop stop-color="#B37CFF"/>
<stop offset="0.5" stop-color="#D588F3"/>
<stop offset="1" stop-color="#F895E7"/>
</linearGradient>
<linearGradient id="paint1_linear" x1="99.5878" y1="176.217" x2="156.618" y2="70.3233" gradientUnits="userSpaceOnUse">
<stop stop-color="#A737D5"/>
<stop offset="0.5" stop-color="#CB40A8"/>
<stop offset="1" stop-color="#EF497A"/>
</linearGradient>
<linearGradient id="paint2_linear" x1="227.618" y1="146.265" x2="260.935" y2="47.68" gradientUnits="userSpaceOnUse">
<stop stop-color="#A737D5"/>
<stop offset="0.5" stop-color="#CB40A8"/>
<stop offset="1" stop-color="#EF497A"/>
</linearGradient>
<linearGradient id="paint3_linear" x1="89.3798" y1="4.49856" x2="120.804" y2="4.49856" gradientUnits="userSpaceOnUse">
<stop stop-color="#B37CFF"/>
<stop offset="0.5" stop-color="#D588F3"/>
<stop offset="1" stop-color="#F895E7"/>
</linearGradient>
<linearGradient id="paint4_linear" x1="65.1132" y1="4.19783" x2="145.71" y2="4.19783" gradientUnits="userSpaceOnUse">
<stop stop-color="#B37CFF"/>
<stop offset="0.5" stop-color="#D588F3"/>
<stop offset="1" stop-color="#F895E7"/>
</linearGradient>
<linearGradient id="paint5_linear" x1="212.941" y1="19.2159" x2="234.234" y2="19.2159" gradientUnits="userSpaceOnUse">
<stop stop-color="#B37CFF"/>
<stop offset="0.5" stop-color="#D588F3"/>
<stop offset="1" stop-color="#F895E7"/>
</linearGradient>
<linearGradient id="paint6_linear" x1="196.497" y1="19.012" x2="251.111" y2="19.012" gradientUnits="userSpaceOnUse">
<stop stop-color="#B37CFF"/>
<stop offset="0.5" stop-color="#D588F3"/>
<stop offset="1" stop-color="#F895E7"/>
</linearGradient>
<linearGradient id="paint7_linear" x1="-3430.74" y1="-3800" x2="172.598" y2="165.737" gradientUnits="userSpaceOnUse">
<stop stop-color="#2B3582"/>
<stop offset="0.5" stop-color="#202162"/>
<stop offset="1" stop-color="#150E42"/>
</linearGradient>
<linearGradient id="paint8_linear" x1="4645.64" y1="-861.167" x2="4576.59" y2="-854.38" gradientUnits="userSpaceOnUse">
<stop stop-color="#2B3582"/>
<stop offset="0.5" stop-color="#202162"/>
<stop offset="1" stop-color="#150E42"/>
</linearGradient>
<linearGradient id="paint9_linear" x1="23.5641" y1="731.303" x2="89.6318" y2="966.904" gradientUnits="userSpaceOnUse">
<stop stop-color="#18459F"/>
<stop offset="0.5" stop-color="#205DAA"/>
<stop offset="1" stop-color="#2874B5"/>
</linearGradient>
<linearGradient id="paint10_linear" x1="26.9977" y1="732.262" x2="93.0656" y2="967.863" gradientUnits="userSpaceOnUse">
<stop stop-color="#18459F"/>
<stop offset="0.5" stop-color="#205DAA"/>
<stop offset="1" stop-color="#2874B5"/>
</linearGradient>
<linearGradient id="paint11_linear" x1="208.584" y1="783.151" x2="274.651" y2="1018.75" gradientUnits="userSpaceOnUse">
<stop stop-color="#18459F"/>
<stop offset="0.5" stop-color="#205DAA"/>
<stop offset="1" stop-color="#2874B5"/>
</linearGradient>
<linearGradient id="paint12_linear" x1="212.135" y1="784.229" x2="278.203" y2="1019.83" gradientUnits="userSpaceOnUse">
<stop stop-color="#18459F"/>
<stop offset="0.5" stop-color="#205DAA"/>
<stop offset="1" stop-color="#2874B5"/>
</linearGradient>
<linearGradient id="paint13_linear" x1="1364.72" y1="386.045" x2="1401.92" y2="410.162" gradientUnits="userSpaceOnUse">
<stop stop-color="#53D8FF"/>
<stop offset="0.5" stop-color="#468CFB"/>
<stop offset="1" stop-color="#3840F7"/>
</linearGradient>
<linearGradient id="paint14_linear" x1="1374.33" y1="413.839" x2="1374.51" y2="402.887" gradientUnits="userSpaceOnUse">
<stop stop-color="#FDF53F"/>
<stop offset="0.33" stop-color="#F1B84B"/>
<stop offset="0.66" stop-color="#E57A58"/>
<stop offset="0.83" stop-color="#DF5B5F"/>
<stop offset="1" stop-color="#D93C65"/>
</linearGradient>
<linearGradient id="paint15_linear" x1="205.979" y1="22.1912" x2="201.926" y2="-4.56116" gradientUnits="userSpaceOnUse">
<stop stop-color="#2B3582"/>
<stop offset="0.5" stop-color="#202162"/>
<stop offset="1" stop-color="#150E42"/>
</linearGradient>
<linearGradient id="paint16_linear" x1="206.927" y1="17.1012" x2="199.927" y2="-60.0973" gradientUnits="userSpaceOnUse">
<stop stop-color="#53D8FF"/>
<stop offset="0.5" stop-color="#468CFB"/>
<stop offset="1" stop-color="#3840F7"/>
</linearGradient>
<linearGradient id="paint17_linear" x1="207.164" y1="11.3165" x2="200.164" y2="-65.8823" gradientUnits="userSpaceOnUse">
<stop stop-color="#53D8FF"/>
<stop offset="0.5" stop-color="#468CFB"/>
<stop offset="1" stop-color="#3840F7"/>
</linearGradient>
<linearGradient id="paint18_linear" x1="206.691" y1="6.27372" x2="199.691" y2="-70.9248" gradientUnits="userSpaceOnUse">
<stop stop-color="#53D8FF"/>
<stop offset="0.5" stop-color="#468CFB"/>
<stop offset="1" stop-color="#3840F7"/>
</linearGradient>
<linearGradient id="paint19_linear" x1="206.928" y1="1.24302" x2="199.928" y2="-75.9558" gradientUnits="userSpaceOnUse">
<stop stop-color="#53D8FF"/>
<stop offset="0.5" stop-color="#468CFB"/>
<stop offset="1" stop-color="#3840F7"/>
</linearGradient>
<linearGradient id="paint20_linear" x1="204.796" y1="33.4282" x2="207.832" y2="100.647" gradientUnits="userSpaceOnUse">
<stop stop-color="#FDF53F"/>
<stop offset="0.5" stop-color="#EB9852"/>
<stop offset="1" stop-color="#D93C65"/>
</linearGradient>
<linearGradient id="paint21_linear" x1="210.359" y1="-49.225" x2="212.3" y2="-110.893" gradientUnits="userSpaceOnUse">
<stop stop-color="#FDF53F"/>
<stop offset="0.5" stop-color="#EB9852"/>
<stop offset="1" stop-color="#D93C65"/>
</linearGradient>
<linearGradient id="paint22_linear" x1="199.706" y1="-48.4912" x2="201.647" y2="-110.159" gradientUnits="userSpaceOnUse">
<stop stop-color="#FDF53F"/>
<stop offset="0.5" stop-color="#EB9852"/>
<stop offset="1" stop-color="#D93C65"/>
</linearGradient>
<linearGradient id="paint23_linear" x1="964.207" y1="598.352" x2="892.782" y2="520.663" gradientUnits="userSpaceOnUse">
<stop stop-color="#2B3582"/>
<stop offset="0.5" stop-color="#202162"/>
<stop offset="1" stop-color="#150E42"/>
</linearGradient>
<linearGradient id="paint24_linear" x1="941.001" y1="592.056" x2="947.345" y2="592.056" gradientUnits="userSpaceOnUse">
<stop stop-color="#F9B776"/>
<stop offset="0.5" stop-color="#F7986B"/>
<stop offset="1" stop-color="#F47960"/>
</linearGradient>
<linearGradient id="paint25_linear" x1="968.416" y1="400.817" x2="907.637" y2="318.439" gradientUnits="userSpaceOnUse">
<stop stop-color="#2B3582"/>
<stop offset="0.5" stop-color="#202162"/>
<stop offset="1" stop-color="#150E42"/>
</linearGradient>
<linearGradient id="paint26_linear" x1="947.978" y1="585.449" x2="876.551" y2="507.756" gradientUnits="userSpaceOnUse">
<stop stop-color="#2B3582"/>
<stop offset="0.5" stop-color="#202162"/>
<stop offset="1" stop-color="#150E42"/>
</linearGradient>
<linearGradient id="paint27_linear" x1="918.146" y1="590.579" x2="923.619" y2="590.579" gradientUnits="userSpaceOnUse">
<stop stop-color="#F9B776"/>
<stop offset="0.5" stop-color="#F7986B"/>
<stop offset="1" stop-color="#F47960"/>
</linearGradient>
<linearGradient id="paint28_linear" x1="957.561" y1="391.503" x2="896.783" y2="309.125" gradientUnits="userSpaceOnUse">
<stop stop-color="#2B3582"/>
<stop offset="0.5" stop-color="#202162"/>
<stop offset="1" stop-color="#150E42"/>
</linearGradient>
<linearGradient id="paint29_linear" x1="117.467" y1="264.309" x2="123.299" y2="154.632" gradientUnits="userSpaceOnUse">
<stop stop-color="#FDF53F"/>
<stop offset="0.5" stop-color="#EB9852"/>
<stop offset="1" stop-color="#D93C65"/>
</linearGradient>
<linearGradient id="paint30_linear" x1="156.036" y1="182.823" x2="149.043" y2="152.478" gradientUnits="userSpaceOnUse">
<stop stop-color="#FDF53F"/>
<stop offset="0.5" stop-color="#EB9852"/>
<stop offset="1" stop-color="#D93C65"/>
</linearGradient>
<linearGradient id="paint31_linear" x1="949.519" y1="323.168" x2="980.707" y2="332.007" gradientUnits="userSpaceOnUse">
<stop stop-color="#F9B776"/>
<stop offset="0.5" stop-color="#F7986B"/>
<stop offset="1" stop-color="#F47960"/>
</linearGradient>
<linearGradient id="paint32_linear" x1="-523.763" y1="-149.67" x2="-557.981" y2="-107.825" gradientUnits="userSpaceOnUse">
<stop stop-color="#F9B776"/>
<stop offset="0.5" stop-color="#F7986B"/>
<stop offset="1" stop-color="#F47960"/>
</linearGradient>
<linearGradient id="paint33_linear" x1="999.436" y1="261.751" x2="1004.44" y2="277.626" gradientUnits="userSpaceOnUse">
<stop stop-color="#F9B776"/>
<stop offset="0.5" stop-color="#F7986B"/>
<stop offset="1" stop-color="#F47960"/>
</linearGradient>
<linearGradient id="paint34_linear" x1="91.4387" y1="189.812" x2="109.198" y2="156.178" gradientUnits="userSpaceOnUse">
<stop stop-color="#FDF53F"/>
<stop offset="0.5" stop-color="#EB9852"/>
<stop offset="1" stop-color="#D93C65"/>
</linearGradient>
<linearGradient id="paint35_linear" x1="893.672" y1="234.628" x2="931.557" y2="234.117" gradientUnits="userSpaceOnUse">
<stop stop-color="#F9B776"/>
<stop offset="0.5" stop-color="#F8A971"/>
<stop offset="1" stop-color="#F79A6C"/>
</linearGradient>
<linearGradient id="paint36_linear" x1="132.946" y1="152.613" x2="116.97" y2="146.931" gradientUnits="userSpaceOnUse">
<stop stop-color="#F9B776"/>
<stop offset="0.5" stop-color="#F7986B"/>
<stop offset="1" stop-color="#F47960"/>
</linearGradient>
<linearGradient id="paint37_linear" x1="136.993" y1="139.945" x2="133.266" y2="125.837" gradientUnits="userSpaceOnUse">
<stop stop-color="#F9B776"/>
<stop offset="0.5" stop-color="#F7986B"/>
<stop offset="1" stop-color="#F47960"/>
</linearGradient>
<linearGradient id="paint38_linear" x1="259.854" y1="178.077" x2="244.572" y2="153.013" gradientUnits="userSpaceOnUse">
<stop stop-color="#2B3582"/>
<stop offset="0.5" stop-color="#202162"/>
<stop offset="1" stop-color="#150E42"/>
</linearGradient>
<linearGradient id="paint39_linear" x1="128.373" y1="136.211" x2="125.693" y2="131.557" gradientUnits="userSpaceOnUse">
<stop stop-color="#F9B776"/>
<stop offset="0.5" stop-color="#F7986B"/>
<stop offset="1" stop-color="#F47960"/>
</linearGradient>
<linearGradient id="paint40_linear" x1="146.374" y1="170.486" x2="134.57" y2="203.706" gradientUnits="userSpaceOnUse">
<stop stop-color="#2B3582"/>
<stop offset="0.5" stop-color="#202162"/>
<stop offset="1" stop-color="#150E42"/>
</linearGradient>
<linearGradient id="paint41_linear" x1="909.82" y1="235.684" x2="897.772" y2="230.797" gradientUnits="userSpaceOnUse">
<stop stop-color="#F9B776"/>
<stop offset="0.5" stop-color="#F8AA71"/>
<stop offset="1" stop-color="#F79C6D"/>
</linearGradient>
<linearGradient id="paint42_linear" x1="-957.449" y1="188.452" x2="-960.928" y2="202.523" gradientUnits="userSpaceOnUse">
<stop stop-color="#53D8FF"/>
<stop offset="0.5" stop-color="#468CFB"/>
<stop offset="1" stop-color="#3840F7"/>
</linearGradient>
<linearGradient id="paint43_linear" x1="368.863" y1="607.559" x2="376.937" y2="607.559" gradientUnits="userSpaceOnUse">
<stop stop-color="#F9B776"/>
<stop offset="0.5" stop-color="#F7986B"/>
<stop offset="1" stop-color="#F47960"/>
</linearGradient>
<linearGradient id="paint44_linear" x1="47.24" y1="193.401" x2="38.9695" y2="195.688" gradientUnits="userSpaceOnUse">
<stop stop-color="#F9B776"/>
<stop offset="0.5" stop-color="#F7986B"/>
<stop offset="1" stop-color="#F47960"/>
</linearGradient>
<linearGradient id="paint45_linear" x1="46.6474" y1="192.515" x2="79.3308" y2="242.656" gradientUnits="userSpaceOnUse">
<stop stop-color="#53D8FF"/>
<stop offset="0.5" stop-color="#468CFB"/>
<stop offset="1" stop-color="#3840F7"/>
</linearGradient>
<linearGradient id="paint46_linear" x1="291.447" y1="530.426" x2="256.051" y2="450.321" gradientUnits="userSpaceOnUse">
<stop stop-color="#FDF53F"/>
<stop offset="0.33" stop-color="#F1B84B"/>
<stop offset="0.66" stop-color="#E57A58"/>
<stop offset="0.83" stop-color="#DF5B5F"/>
<stop offset="1" stop-color="#D93C65"/>
</linearGradient>
<linearGradient id="paint47_linear" x1="320.686" y1="543.329" x2="285.29" y2="463.223" gradientUnits="userSpaceOnUse">
<stop stop-color="#FDF53F"/>
<stop offset="0.33" stop-color="#F1B84B"/>
<stop offset="0.66" stop-color="#E57A58"/>
<stop offset="0.83" stop-color="#DF5B5F"/>
<stop offset="1" stop-color="#D93C65"/>
</linearGradient>
<linearGradient id="paint48_linear" x1="25.2212" y1="281.46" x2="24.8021" y2="267.705" gradientUnits="userSpaceOnUse">
<stop stop-color="#FDF53F"/>
<stop offset="0.33" stop-color="#F1B84B"/>
<stop offset="0.66" stop-color="#E57A58"/>
<stop offset="0.83" stop-color="#DF5B5F"/>
<stop offset="1" stop-color="#D93C65"/>
</linearGradient>
<linearGradient id="paint49_linear" x1="335.601" y1="628.465" x2="360.604" y2="628.465" gradientUnits="userSpaceOnUse">
<stop stop-color="#CB236D"/>
<stop offset="0.5" stop-color="#8B236D"/>
<stop offset="1" stop-color="#4C246D"/>
</linearGradient>
<linearGradient id="paint50_linear" x1="354.777" y1="574.343" x2="347.946" y2="527.149" gradientUnits="userSpaceOnUse">
<stop stop-color="#CB236D"/>
<stop offset="0.5" stop-color="#8B236D"/>
<stop offset="1" stop-color="#4C246D"/>
</linearGradient>
<linearGradient id="paint51_linear" x1="336.783" y1="605.827" x2="343.543" y2="605.827" gradientUnits="userSpaceOnUse">
<stop stop-color="#F9B776"/>
<stop offset="0.5" stop-color="#F7986B"/>
<stop offset="1" stop-color="#F47960"/>
</linearGradient>
<linearGradient id="paint52_linear" x1="70.2043" y1="314.903" x2="45.1459" y2="276.668" gradientUnits="userSpaceOnUse">
<stop stop-color="#CB236D"/>
<stop offset="0.5" stop-color="#8B236D"/>
<stop offset="1" stop-color="#4C246D"/>
</linearGradient>
<linearGradient id="paint53_linear" x1="348.03" y1="492.156" x2="289.245" y2="425.504" gradientUnits="userSpaceOnUse">
<stop stop-color="#CB236D"/>
<stop offset="0.5" stop-color="#8B236D"/>
<stop offset="1" stop-color="#4C246D"/>
</linearGradient>
<linearGradient id="paint54_linear" x1="47.4754" y1="196.157" x2="8.42353" y2="251.033" gradientUnits="userSpaceOnUse">
<stop stop-color="#53D8FF"/>
<stop offset="0.5" stop-color="#468CFB"/>
<stop offset="1" stop-color="#3840F7"/>
</linearGradient>
<linearGradient id="paint55_linear" x1="378.097" y1="335.124" x2="396.483" y2="332.034" gradientUnits="userSpaceOnUse">
<stop stop-color="#F9B776"/>
<stop offset="0.5" stop-color="#F7986B"/>
<stop offset="1" stop-color="#F47960"/>
</linearGradient>
<linearGradient id="paint56_linear" x1="365.235" y1="622.425" x2="385.413" y2="623.065" gradientUnits="userSpaceOnUse">
<stop stop-color="#CB236D"/>
<stop offset="0.5" stop-color="#8B236D"/>
<stop offset="1" stop-color="#4C246D"/>
</linearGradient>
<linearGradient id="paint57_linear" x1="380.327" y1="583.505" x2="374.997" y2="536.118" gradientUnits="userSpaceOnUse">
<stop stop-color="#CB236D"/>
<stop offset="0.5" stop-color="#8B236D"/>
<stop offset="1" stop-color="#4C246D"/>
</linearGradient>
<linearGradient id="paint58_linear" x1="56.3911" y1="178.613" x2="45.2788" y2="189.557" gradientUnits="userSpaceOnUse">
<stop stop-color="#F9B776"/>
<stop offset="0.5" stop-color="#F7986B"/>
<stop offset="1" stop-color="#F47960"/>
</linearGradient>
<linearGradient id="paint59_linear" x1="38.4463" y1="171.114" x2="48.3113" y2="182.149" gradientUnits="userSpaceOnUse">
<stop stop-color="#2B3582"/>
<stop offset="0.5" stop-color="#202162"/>
<stop offset="1" stop-color="#150E42"/>
</linearGradient>
<linearGradient id="paint60_linear" x1="569.125" y1="320.845" x2="547.448" y2="308.052" gradientUnits="userSpaceOnUse">
<stop stop-color="#F9B776"/>
<stop offset="0.5" stop-color="#F7986B"/>
<stop offset="1" stop-color="#F47960"/>
</linearGradient>
<linearGradient id="paint61_linear" x1="227.483" y1="164.429" x2="237.536" y2="207.093" gradientUnits="userSpaceOnUse">
<stop stop-color="#2B3582"/>
<stop offset="0.5" stop-color="#202162"/>
<stop offset="1" stop-color="#150E42"/>
</linearGradient>
<linearGradient id="paint62_linear" x1="221.404" y1="194.151" x2="246.07" y2="236.031" gradientUnits="userSpaceOnUse">
<stop stop-color="#CB236D"/>
<stop offset="0.5" stop-color="#8B236D"/>
<stop offset="1" stop-color="#4C246D"/>
</linearGradient>
<linearGradient id="paint63_linear" x1="217.719" y1="192.158" x2="225.121" y2="243.309" gradientUnits="userSpaceOnUse">
<stop stop-color="#CB236D"/>
<stop offset="0.5" stop-color="#8B236D"/>
<stop offset="1" stop-color="#4C246D"/>
</linearGradient>
<linearGradient id="paint64_linear" x1="212.016" y1="196.346" x2="215.877" y2="184.436" gradientUnits="userSpaceOnUse">
<stop stop-color="#F9B776"/>
<stop offset="0.5" stop-color="#F7986B"/>
<stop offset="1" stop-color="#F47960"/>
</linearGradient>
<linearGradient id="paint65_linear" x1="212.257" y1="173.923" x2="200.487" y2="187.653" gradientUnits="userSpaceOnUse">
<stop stop-color="#F9B776"/>
<stop offset="0.5" stop-color="#F7986B"/>
<stop offset="1" stop-color="#F47960"/>
</linearGradient>
<linearGradient id="paint66_linear" x1="212.324" y1="165.424" x2="208.406" y2="182.887" gradientUnits="userSpaceOnUse">
<stop stop-color="#2B3582"/>
<stop offset="0.5" stop-color="#202162"/>
<stop offset="1" stop-color="#150E42"/>
</linearGradient>
<linearGradient id="paint67_linear" x1="210.563" y1="176.594" x2="211.33" y2="170.764" gradientUnits="userSpaceOnUse">
<stop stop-color="#F9B776"/>
<stop offset="0.5" stop-color="#F7986B"/>
<stop offset="1" stop-color="#F47960"/>
</linearGradient>
<linearGradient id="paint68_linear" x1="-164.069" y1="360.341" x2="-199.373" y2="352.501" gradientUnits="userSpaceOnUse">
<stop stop-color="#2B3582"/>
<stop offset="0.5" stop-color="#202162"/>
<stop offset="1" stop-color="#150E42"/>
</linearGradient>
<linearGradient id="paint69_linear" x1="-204.189" y1="327.224" x2="-228.936" y2="301.068" gradientUnits="userSpaceOnUse">
<stop stop-color="#2B3582"/>
<stop offset="0.5" stop-color="#202162"/>
<stop offset="1" stop-color="#150E42"/>
</linearGradient>
<linearGradient id="paint70_linear" x1="-219.223" y1="332.448" x2="-230.451" y2="315.538" gradientUnits="userSpaceOnUse">
<stop stop-color="#53D8FF"/>
<stop offset="0.5" stop-color="#468CFB"/>
<stop offset="1" stop-color="#3840F7"/>
</linearGradient>
<linearGradient id="paint71_linear" x1="-154.426" y1="380.407" x2="-99.0233" y2="380.788" gradientUnits="userSpaceOnUse">
<stop stop-color="#F9B776"/>
<stop offset="0.5" stop-color="#F7986B"/>
<stop offset="1" stop-color="#F47960"/>
</linearGradient>
<linearGradient id="paint72_linear" x1="105.006" y1="677.921" x2="171.074" y2="913.522" gradientUnits="userSpaceOnUse">
<stop stop-color="#18459F"/>
<stop offset="0.5" stop-color="#205DAA"/>
<stop offset="1" stop-color="#2874B5"/>
</linearGradient>
<linearGradient id="paint73_linear" x1="-154.209" y1="381.746" x2="-98.8048" y2="382.039" gradientUnits="userSpaceOnUse">
<stop stop-color="#F9B776"/>
<stop offset="0.5" stop-color="#F7986B"/>
<stop offset="1" stop-color="#F47960"/>
</linearGradient>
<linearGradient id="paint74_linear" x1="296.588" y1="207.883" x2="292.851" y2="168.165" gradientUnits="userSpaceOnUse">
<stop stop-color="#53D8FF"/>
<stop offset="0.5" stop-color="#468CFB"/>
<stop offset="1" stop-color="#3840F7"/>
</linearGradient>
<linearGradient id="paint75_linear" x1="1143.12" y1="231.059" x2="1091.87" y2="231.275" gradientUnits="userSpaceOnUse">
<stop stop-color="#F9B776"/>
<stop offset="0.5" stop-color="#F7986B"/>
<stop offset="1" stop-color="#F47960"/>
</linearGradient>
<linearGradient id="paint76_linear" x1="1155.77" y1="668.655" x2="1155.41" y2="707.39" gradientUnits="userSpaceOnUse">
<stop stop-color="#2B3582"/>
<stop offset="0.5" stop-color="#202162"/>
<stop offset="1" stop-color="#150E42"/>
</linearGradient>
<linearGradient id="paint77_linear" x1="1184.62" y1="611.463" x2="1186.63" y2="595.75" gradientUnits="userSpaceOnUse">
<stop stop-color="#F9B776"/>
<stop offset="0.5" stop-color="#F7986B"/>
<stop offset="1" stop-color="#F47960"/>
</linearGradient>
<linearGradient id="paint78_linear" x1="1312.6" y1="682.301" x2="1312.23" y2="721.036" gradientUnits="userSpaceOnUse">
<stop stop-color="#2B3582"/>
<stop offset="0.5" stop-color="#202162"/>
<stop offset="1" stop-color="#150E42"/>
</linearGradient>
<linearGradient id="paint79_linear" x1="1317.03" y1="629.497" x2="1318.99" y2="614.185" gradientUnits="userSpaceOnUse">
<stop stop-color="#F9B776"/>
<stop offset="0.5" stop-color="#F7986B"/>
<stop offset="1" stop-color="#F47960"/>
</linearGradient>
<linearGradient id="paint80_linear" x1="1295.5" y1="465.024" x2="1235.22" y2="465.024" gradientUnits="userSpaceOnUse">
<stop stop-color="#2B3582"/>
<stop offset="0.5" stop-color="#202162"/>
<stop offset="1" stop-color="#150E42"/>
</linearGradient>
<linearGradient id="paint81_linear" x1="1301.66" y1="403.904" x2="1299.47" y2="399.519" gradientUnits="userSpaceOnUse">
<stop stop-color="#53D8FF"/>
<stop offset="0.5" stop-color="#468CFB"/>
<stop offset="1" stop-color="#3840F7"/>
</linearGradient>
<linearGradient id="paint82_linear" x1="327.843" y1="227.712" x2="305.82" y2="154.392" gradientUnits="userSpaceOnUse">
<stop stop-color="#53D8FF"/>
<stop offset="0.5" stop-color="#468CFB"/>
<stop offset="1" stop-color="#3840F7"/>
</linearGradient>
<linearGradient id="paint83_linear" x1="274.757" y1="-23.4179" x2="5.52551" y2="-482.108" gradientUnits="userSpaceOnUse">
<stop stop-color="#53D8FF"/>
<stop offset="0.45" stop-color="#468CFB"/>
<stop offset="1" stop-color="#3840F7"/>
</linearGradient>
<linearGradient id="paint84_linear" x1="1242.96" y1="337.889" x2="1215.52" y2="337.889" gradientUnits="userSpaceOnUse">
<stop stop-color="#F9B776"/>
<stop offset="0.5" stop-color="#F7986B"/>
<stop offset="1" stop-color="#F47960"/>
</linearGradient>
<linearGradient id="paint85_linear" x1="293.815" y1="2.84575" x2="24.5837" y2="-455.844" gradientUnits="userSpaceOnUse">
<stop stop-color="#53D8FF"/>
<stop offset="0.45" stop-color="#468CFB"/>
<stop offset="1" stop-color="#3840F7"/>
</linearGradient>
<linearGradient id="paint86_linear" x1="299.737" y1="154.923" x2="309.279" y2="149.708" gradientUnits="userSpaceOnUse">
<stop stop-color="#F9B776"/>
<stop offset="0.5" stop-color="#F7986B"/>
<stop offset="1" stop-color="#F47960"/>
</linearGradient>
<linearGradient id="paint87_linear" x1="298.344" y1="138.744" x2="285.891" y2="140.381" gradientUnits="userSpaceOnUse">
<stop stop-color="#F9B776"/>
<stop offset="0.5" stop-color="#F7986B"/>
<stop offset="1" stop-color="#F47960"/>
</linearGradient>
<linearGradient id="paint88_linear" x1="1197.16" y1="86.4239" x2="1170.59" y2="86.2364" gradientUnits="userSpaceOnUse">
<stop stop-color="#CB236D"/>
<stop offset="0.5" stop-color="#8B236D"/>
<stop offset="1" stop-color="#4C246D"/>
</linearGradient>
<linearGradient id="paint89_linear" x1="1235.49" y1="99.671" x2="1217.78" y2="81.2425" gradientUnits="userSpaceOnUse">
<stop stop-color="#F9B776"/>
<stop offset="0.5" stop-color="#F7986B"/>
<stop offset="1" stop-color="#F47960"/>
</linearGradient>
<linearGradient id="paint90_linear" x1="-163.825" y1="585.482" x2="-155.329" y2="638.925" gradientUnits="userSpaceOnUse">
<stop stop-color="#18459F"/>
<stop offset="0.5" stop-color="#205DAA"/>
<stop offset="1" stop-color="#2874B5"/>
</linearGradient>
<linearGradient id="paint91_linear" x1="-160.391" y1="627.683" x2="-151.895" y2="681.126" gradientUnits="userSpaceOnUse">
<stop stop-color="#18459F"/>
<stop offset="0.5" stop-color="#205DAA"/>
<stop offset="1" stop-color="#2874B5"/>
</linearGradient>
<linearGradient id="paint92_linear" x1="-167.02" y1="535.741" x2="-158.524" y2="589.184" gradientUnits="userSpaceOnUse">
<stop stop-color="#18459F"/>
<stop offset="0.5" stop-color="#205DAA"/>
<stop offset="1" stop-color="#2874B5"/>
</linearGradient>
<linearGradient id="paint93_linear" x1="210.123" y1="318.926" x2="199.372" y2="249.408" gradientUnits="userSpaceOnUse">
<stop stop-color="#F9B776"/>
<stop offset="0.5" stop-color="#F7986B"/>
<stop offset="1" stop-color="#F47960"/>
</linearGradient>
<linearGradient id="paint94_linear" x1="-186.553" y1="596.211" x2="-190.664" y2="533.175" gradientUnits="userSpaceOnUse">
<stop stop-color="#CB236D"/>
<stop offset="0.5" stop-color="#8B236D"/>
<stop offset="1" stop-color="#4C246D"/>
</linearGradient>
<linearGradient id="paint95_linear" x1="166.204" y1="314.104" x2="193.222" y2="250.718" gradientUnits="userSpaceOnUse">
<stop stop-color="#F9B776"/>
<stop offset="0.5" stop-color="#F7986B"/>
<stop offset="1" stop-color="#F47960"/>
</linearGradient>
<linearGradient id="paint96_linear" x1="-200.166" y1="435.466" x2="-134.086" y2="435.466" gradientUnits="userSpaceOnUse">
<stop stop-color="#2B3582"/>
<stop offset="0.5" stop-color="#202162"/>
<stop offset="1" stop-color="#150E42"/>
</linearGradient>
<linearGradient id="paint97_linear" x1="-226.207" y1="608.673" x2="-230.319" y2="545.638" gradientUnits="userSpaceOnUse">
<stop stop-color="#CB236D"/>
<stop offset="0.5" stop-color="#8B236D"/>
<stop offset="1" stop-color="#4C246D"/>
</linearGradient>
</defs>
</svg>
